{"title":"Hunting Hitler S01E08 (2015) x264","uid":13005799,"size":367909158,"categoryP":"video","categoryS":"tv_shows","magnet":"?xt=urn:btih:f594d27da6b37ef14a2589366474c9911f2d719b&amp;dn=Hunting+Hitler+S01E08+%282015%29+x264&amp;tr=udp%3A%2F%2Ftracker.leechers-paradise.org%3A6969&amp;tr=udp%3A%2F%2Fzer0day.ch%3A1337&amp;tr=udp%3A%2F%2Fopen.demonii.com%3A1337&amp;tr=udp%3A%2F%2Ftracker.coppersurfer.tk%3A6969&amp;tr=udp%3A%2F%2Fexodus.desync.com%3A6969","seeders":1,"leechers":0,"uploader":"Pyre8Storm","files":1,"time":1450222092,"description":"Hunting Hitler - Episode 8\r\n\r\nIn the climax of the investigation, the head of the team leads a search of two marshes in the heart of Bogota that are listed in the declassified FBI files as being the location of a submerged plane that transported Hitler to the area.\r\n\r\nScreens:\r\n \nhttp://extraimago.com/image/Xug\r\n\r\nFormat                                   : MPEG-4\r\nFormat profile                           : Base Media / Version 2\r\nCodec ID                                 : mp42\r\nFile size                                : 351 MiB\r\nDuration                                 : 41mn 13s\r\nOverall bit rate                         : 1 190 Kbps\r\nFormat                                   : AVC\r\nFormat/Info                              : Advanced Video Codec\r\nFormat profile                           :   \r\nFormat settings, CABAC                   : Yes\r\nFormat settings, ReFrames                : 4 frames\r\nCodec ID                                 : avc1\r\nCodec ID/Info                            : Advanced Video Coding\r\nDuration                                 : 41mn 13s\r\nBit rate                                 : 1 059 Kbps\r\nWidth                                    : 960 pixels\r\nHeight                                   : 540 pixels\r\nDisplay aspect ratio                     : 16:9\r\nFrame rate mode                          : Variable\r\nFrame rate                               : 25.000 fps\r\nMinimum frame rate                       : 2.778 fps\r\nMaximum frame rate                       : 25.000 fps\r\nColor space                              : YUV\r\nChroma subsampling                       : 4:2:0\r\nBit depth                                : 8 bits\r\nScan type                                : Progressive\r\nBits/(Pixel*Frame)                       : 0.082\r\nStream size                              : 312 MiB (89%)\r\n\r\nAudio\r\nID                                       : 2\r\nFormat                                   : AC-3\r\nFormat/Info                              : Audio Coding 3\r\nMode extension                           : CM (complete main)\r\nFormat settings, Endianness              : Big\r\nCodec ID                                 : ac-3\r\nDuration                                 : 41mn 13s\r\nDuration_FirstFrame                      : 160ms\r\nBit rate mode                            : Constant\r\nBit rate                                 : 128 Kbps\r\nChannel(s)                               : 2 channels\r\nChannel positions                        : Front: L R\r\nSampling rate                            : 48.0 KHz\r\nBit depth                                : 16 bits\r\nCompression mode                         : Lossy\r\nStream size                              : 37.7 MiB (11%)\r\nTitle                                    : Stereo\r\n\r\n\r\nPlease seed for others","torrent":{"xt":"urn:btih:f594d27da6b37ef14a2589366474c9911f2d719b","amp;dn":"Hunting+Hitler+S01E08+%282015%29+x264","amp;tr":["udp%3A%2F%2Ftracker.leechers-paradise.org%3A6969","udp%3A%2F%2Fzer0day.ch%3A1337","udp%3A%2F%2Fopen.demonii.com%3A1337","udp%3A%2F%2Ftracker.coppersurfer.tk%3A6969","udp%3A%2F%2Fexodus.desync.com%3A6969"],"infoHash":"f594d27da6b37ef14a2589366474c9911f2d719b","infoHashBuffer":{"type":"Buffer","data":[245,148,210,125,166,179,126,241,74,37,137,54,100,116,201,145,31,45,113,155]},"announce":[],"urlList":[]}}